<svg width="52" height="52" viewBox="0 0 52 52" fill="none" xmlns="http://www.w3.org/2000/svg">
<path d="M17.4525 6.13278C19.9177 -2.04426 31.4959 -2.04426 33.9611 6.13278V6.13278C35.0588 9.77381 38.4647 12.2656 42.2676 12.2656V12.2656C50.8002 12.2656 54.7323 23.0498 48.0142 28.3104L46.9604 29.1356C44.0021 31.4521 42.7682 35.3465 43.8527 38.9439L44.3879 40.7192C46.7909 48.6902 37.5196 55.0282 30.9647 49.8954V49.8954C27.8765 47.4772 23.5371 47.4772 20.4489 49.8954V49.8954C13.8941 55.0282 4.62268 48.6902 7.02571 40.7192L7.5609 38.9439C8.64544 35.3465 7.41155 31.4521 4.45322 29.1356L3.39943 28.3104C-3.31864 23.0498 0.613405 12.2656 9.14607 12.2656V12.2656C12.949 12.2656 16.3549 9.77381 17.4525 6.13278V6.13278Z" fill="url(#paint0_linear_37_3)"/>
<defs>
<linearGradient id="paint0_linear_37_3" x1="25.7068" y1="-21.2471" x2="25.7068" y2="75.7529" gradientUnits="userSpaceOnUse">
<stop stop-color="#EBCB85"/>
<stop offset="1" stop-color="#ECE4D3"/>
</linearGradient>
</defs>
</svg>
